# xmcd CD database file
#
# Track frame offsets:
#	150
#	14141
#	26662
#	40660
#	54955
#	89410
#	112675
#	129613
#	155488
#	182387
#	202793
#	226597
#	255320
#	279063
#
# Disc length: 3902 seconds
#
# Revision: 0
# Processed by: cddbd v1.5.2PL0 Copyright (c) Steve Scherf et al.
# Submitted via: CDex 1.70beta2
#
DISCID=9d0f3c0e
DTITLE=Thelonious Monk - Midnight Monk [CD2]
DYEAR=2006
DGENRE=Jazz
TTITLE0=Little Rootie Tootie
TTITLE1=Bye-Ya
TTITLE2=Monk's Dream
TTITLE3=Bemsha Swing
TTITLE4=Blue Monk
TTITLE5='Round About Midnight
TTITLE6=Solitude
TTITLE7=I Let A Song Go Out Of My Heart
TTITLE8=Caravan
TTITLE9=Smoke Gets In Your Eyes
TTITLE10=Hackensack
TTITLE11=Locomotive
TTITLE12=We See
TTITLE13=Just A Gigolo
EXTD=YEAR: 2006
EXTT0=
EXTT1=
EXTT2=
EXTT3=
EXTT4=
EXTT5=
EXTT6=
EXTT7=
EXTT8=
EXTT9=
EXTT10=
EXTT11=
EXTT12=
EXTT13=
PLAYORDER=
